<svg width="218" height="69" viewBox="0 0 218 69" fill="none" xmlns="http://www.w3.org/2000/svg">
<path d="M26.4224 15.1597C26.4224 15.9946 26.2905 16.8369 26.0269 17.6865C25.7632 18.5361 25.375 19.3564 24.8623 20.1475C24.3643 20.9385 23.7563 21.6855 23.0386 22.3887C22.3354 23.0918 21.5444 23.7144 20.6655 24.2563C19.8013 24.7837 18.8638 25.2158 17.853 25.5527C16.8423 25.8896 15.7876 26.0947 14.689 26.168C14.4839 26.1973 14.2788 26.1973 14.0737 26.168C13.8833 26.124 13.7075 26.0801 13.5464 26.0361C13.4292 25.9922 13.2607 25.9263 13.041 25.8384C12.8359 25.7505 12.7041 25.6846 12.6455 25.6406C12.5576 25.5527 12.4331 25.4209 12.272 25.2451C12.1255 25.0547 12.0156 24.9009 11.9424 24.7837C11.8984 24.7104 11.8765 24.5933 11.8765 24.4321C11.8911 24.2563 11.8984 24.0586 11.8984 23.8389C11.8984 23.6338 11.8911 23.4214 11.8765 23.2017C11.8765 22.9673 11.8984 22.8354 11.9424 22.8062C11.9717 22.7769 12.0376 22.8062 12.1401 22.894C12.2573 22.9673 12.4771 23.0259 12.7993 23.0698C12.9312 23.0991 13.0776 23.1064 13.2388 23.0918C13.4146 23.0771 13.583 23.0552 13.7441 23.0259C14.2568 22.9819 14.8501 22.8354 15.5239 22.5864C16.1978 22.3374 16.8862 22.0078 17.5894 21.5977C18.3071 21.1875 19.0103 20.7114 19.6987 20.1694C20.3872 19.6128 20.9951 19.0195 21.5225 18.3896C22.0645 17.7598 22.4966 17.0933 22.8188 16.3901C23.1558 15.687 23.3242 14.9766 23.3242 14.2588C23.3242 13.7021 23.2144 13.1675 22.9946 12.6548C22.7749 12.1274 22.4307 11.6074 21.9619 11.0947C21.6689 10.7578 21.0977 10.4941 20.248 10.3037C19.3984 10.1133 18.3804 10.0181 17.1938 10.0181C16.1831 10.0181 15.0991 10.0986 13.9419 10.2598C12.7847 10.4209 11.6348 10.6846 10.4922 11.0508C9.51074 11.373 8.67578 11.6587 7.9873 11.9077C7.29883 12.1421 6.70557 12.3545 6.20752 12.5449C5.72412 12.7354 5.32129 12.8965 4.99902 13.0283C4.69141 13.1602 4.42041 13.2773 4.18604 13.3799C3.95166 13.4678 3.73926 13.5557 3.54883 13.6436C3.3584 13.7168 3.15332 13.7827 2.93359 13.8413C2.72852 13.9146 2.56738 13.9585 2.4502 13.9731C2.33301 13.9731 2.23779 13.9731 2.16455 13.9731C2.04736 13.9438 1.95947 13.9146 1.90088 13.8853C1.85693 13.8413 1.79834 13.7974 1.7251 13.7534C1.6665 13.7095 1.60791 13.6948 1.54932 13.7095C1.49072 13.7095 1.43213 13.7168 1.37354 13.7314C1.32959 13.7461 1.27832 13.7461 1.21973 13.7314C1.16113 13.7168 1.10254 13.6655 1.04395 13.5776C0.956055 13.4165 0.897461 13.292 0.868164 13.2041C0.824219 13.1016 0.802246 13.021 0.802246 12.9624C0.787598 12.8892 0.787598 12.8232 0.802246 12.7646C0.816895 12.7061 0.838867 12.6328 0.868164 12.5449C0.882812 12.457 0.882812 12.3765 0.868164 12.3032C0.853516 12.23 0.846191 12.1641 0.846191 12.1055C0.831543 12.0469 0.838867 11.9883 0.868164 11.9297C0.882812 11.8564 0.941406 11.7759 1.04395 11.688C1.24902 11.5269 1.58594 11.2778 2.05469 10.9409C2.52344 10.604 3.10205 10.2378 3.79053 9.84229C4.49365 9.43213 5.29199 9.01465 6.18555 8.58984C7.09375 8.16504 8.0752 7.77686 9.12988 7.42529C10.1992 7.05908 11.3345 6.75879 12.5356 6.52441C13.7515 6.27539 15.0186 6.13623 16.3369 6.10693C17.6553 6.07764 18.8125 6.22412 19.8086 6.54639C20.8193 6.854 21.6982 7.27148 22.4453 7.79883C23.1924 8.31152 23.8149 8.90479 24.313 9.57861C24.8257 10.2378 25.2358 10.9043 25.5435 11.5781C25.8511 12.252 26.0708 12.9038 26.2026 13.5337C26.3345 14.1636 26.4077 14.7056 26.4224 15.1597ZM11.3491 12.2153C11.3345 12.2886 11.3052 12.5376 11.2612 12.9624C11.2319 13.3872 11.188 13.9365 11.1294 14.6104C11.0854 15.2695 11.0342 16.0239 10.9756 16.8735C10.917 17.7231 10.8584 18.6094 10.7998 19.5322C10.7412 20.4551 10.6826 21.3926 10.624 22.3447C10.5801 23.2822 10.5508 24.1831 10.5361 25.0474C10.5068 25.9263 10.4849 26.8345 10.4702 27.772C10.4556 28.6948 10.4482 29.6323 10.4482 30.5845C10.4482 31.6831 10.4702 32.7671 10.5142 33.8364C10.5728 34.9058 10.668 35.9385 10.7998 36.9346C10.8584 37.2715 10.8364 37.5352 10.7339 37.7256C10.6313 37.916 10.5801 38.0845 10.5801 38.231C10.5801 38.2749 10.6021 38.3188 10.646 38.3628C10.6899 38.3921 10.6973 38.4214 10.668 38.4507C10.624 38.5239 10.5435 38.5532 10.4263 38.5386C10.3237 38.5239 10.2285 38.48 10.1406 38.4067C10.0967 38.3628 10.0601 38.3115 10.0308 38.2529C10.0015 38.1797 9.97217 38.1211 9.94287 38.0771C9.91357 38.0332 9.87695 38.0112 9.83301 38.0112C9.78906 37.9966 9.72314 38.0259 9.63525 38.0991C9.56201 38.1724 9.47412 38.2749 9.37158 38.4067C9.28369 38.5386 9.18848 38.6777 9.08594 38.8242C8.9834 38.9561 8.88086 39.0732 8.77832 39.1758C8.67578 39.293 8.57324 39.3662 8.4707 39.3955C8.38281 39.4248 8.27295 39.4541 8.14111 39.4834C8.02393 39.5127 7.95068 39.4688 7.92139 39.3516C7.89209 39.293 7.86279 39.2563 7.8335 39.2417C7.8042 39.2271 7.76758 39.2051 7.72363 39.1758C7.67969 39.1611 7.63574 39.1318 7.5918 39.0879C7.5625 39.0586 7.54053 38.9854 7.52588 38.8682C7.45264 38.6191 7.36475 38.436 7.26221 38.3188C7.17432 38.187 7.13037 38.0405 7.13037 37.8794C7.10107 37.6304 7.02783 36.9126 6.91064 35.7261C6.80811 34.5396 6.75684 32.8989 6.75684 30.8042C6.75684 29.9692 6.76416 29.061 6.77881 28.0796C6.80811 27.0981 6.85938 26.0581 6.93262 24.9595C7.00586 23.978 7.09375 22.916 7.19629 21.7734C7.29883 20.6309 7.40137 19.5103 7.50391 18.4116C7.62109 17.313 7.72363 16.2876 7.81152 15.3354C7.89941 14.3833 7.96533 13.5996 8.00928 12.9844C8.02393 12.8818 8.06055 12.8159 8.11914 12.7866C8.17773 12.7573 8.2583 12.7354 8.36084 12.7207C8.46338 12.7061 8.59521 12.6914 8.75635 12.6768C8.91748 12.6475 9.10791 12.5889 9.32764 12.501C9.50342 12.4131 9.7085 12.3252 9.94287 12.2373C10.1919 12.1494 10.4189 12.0835 10.624 12.0396C10.8438 11.981 11.0195 11.959 11.1514 11.9736C11.2979 11.9883 11.3638 12.0688 11.3491 12.2153ZM48.1533 38.3628C48.1533 38.48 48.0801 38.5459 47.9336 38.5605C47.7871 38.5605 47.6333 38.5605 47.4722 38.5605C47.3989 38.5752 47.3257 38.5898 47.2524 38.6045C47.1792 38.6338 47.0986 38.6631 47.0107 38.6924C46.9375 38.707 46.8643 38.751 46.791 38.8242C46.8203 38.9707 46.8276 39.0806 46.813 39.1538C46.813 39.2417 46.813 39.3076 46.813 39.3516L46.791 39.4395C46.7471 39.498 46.6592 39.542 46.5273 39.5713C46.3955 39.6152 46.2563 39.6372 46.1099 39.6372C46.0806 39.6372 46.0366 39.6299 45.978 39.6152C45.8755 39.5859 45.7729 39.5127 45.6704 39.3955C45.4214 39.3223 45.1284 39.249 44.7915 39.1758C44.6157 39.1318 44.4253 39.0879 44.2202 39.0439C44.0591 39 43.9199 38.8828 43.8027 38.6924C43.6855 38.502 43.5757 38.2822 43.4731 38.0332C43.3853 37.7695 43.2974 37.5059 43.2095 37.2422C43.1362 36.9639 43.0703 36.7222 43.0117 36.5171L40.8584 29.7275C40.5361 29.7275 40.126 29.7349 39.6279 29.7495C39.1445 29.7495 38.6245 29.7568 38.0679 29.7715C37.5112 29.7715 36.9473 29.7861 36.376 29.8154C35.8047 29.8301 35.2847 29.8447 34.8159 29.8594L30.4214 30.0791L27.8506 36.8027C27.8066 36.876 27.7407 37.0225 27.6528 37.2422C27.5796 37.4619 27.499 37.6963 27.4111 37.9453C27.3232 38.1797 27.2427 38.4067 27.1694 38.6265C27.0962 38.8315 27.0522 38.9561 27.0376 39C27.0083 39.1172 26.9204 39.1904 26.7739 39.2197C26.6274 39.249 26.5029 39.2783 26.4004 39.3076C26.3125 39.3369 26.2393 39.4175 26.1807 39.5493C26.1221 39.6812 26.0342 39.769 25.917 39.813C25.7998 39.8862 25.6533 39.8936 25.4775 39.835C25.3018 39.7764 25.1479 39.6812 25.0161 39.5493C24.8989 39.4028 24.855 39.2197 24.8843 39C24.9136 38.7656 24.9282 38.5239 24.9282 38.2749C24.9282 38.0259 24.9209 37.7915 24.9062 37.5718C24.9062 37.3521 24.9429 37.1396 25.0161 36.9346C25.0454 36.8467 25.1333 36.5757 25.2798 36.1216C25.4409 35.6528 25.6387 35.0962 25.873 34.4517C26.1074 33.7925 26.3638 33.082 26.6421 32.3203C26.9204 31.5439 27.2061 30.7969 27.499 30.0791C27.2354 30.0791 27.0522 30.0059 26.9497 29.8594C26.8765 29.7422 26.7886 29.6763 26.686 29.6616C26.5835 29.6323 26.4736 29.5957 26.3564 29.5518C26.2393 29.5225 26.1587 29.4565 26.1147 29.354C26.0708 29.2515 26.0635 29.1636 26.0928 29.0903C26.1221 29.0024 26.1001 28.9292 26.0269 28.8706C25.9536 28.812 25.917 28.6802 25.917 28.4751C25.917 28.3872 25.9829 28.3066 26.1147 28.2334C26.2612 28.1455 26.437 28.0723 26.6421 28.0137C26.8472 27.9551 27.0742 27.9038 27.3232 27.8599C27.5869 27.8159 27.8359 27.7793 28.0703 27.75C28.1143 27.75 28.1655 27.75 28.2241 27.75C28.2974 27.75 28.3706 27.7354 28.4438 27.7061C28.7661 26.9297 29.1323 26.0947 29.5425 25.2012C29.9526 24.293 30.3701 23.3701 30.7949 22.4326C31.2344 21.4951 31.6738 20.5576 32.1133 19.6201C32.5527 18.6826 32.9702 17.8037 33.3657 16.9834C33.7612 16.1484 34.1201 15.3867 34.4424 14.6982C34.7793 14.0098 35.0576 13.4385 35.2773 12.9844C35.1016 12.4424 34.9404 11.9443 34.7939 11.4902C34.6621 11.0361 34.5449 10.6406 34.4424 10.3037C34.3398 9.9668 34.2593 9.70313 34.2007 9.5127C34.1421 9.30762 34.1128 9.19043 34.1128 9.16113C34.0981 9.13184 34.0981 9.10254 34.1128 9.07324C34.1421 9 34.2153 8.95605 34.3325 8.94141C34.2153 8.72168 34.1567 8.56055 34.1567 8.45801C34.1567 8.39941 34.1714 8.36279 34.2007 8.34814C34.23 8.31885 34.3032 8.28955 34.4204 8.26025C34.5376 8.23096 34.6621 8.20898 34.7939 8.19434C34.9258 8.16504 35.0503 8.15039 35.1675 8.15039C35.2847 8.13574 35.3652 8.12842 35.4092 8.12842C35.4238 8.12842 35.4604 8.13574 35.519 8.15039C35.6069 8.17969 35.7314 8.24561 35.8926 8.34814C35.9072 8.2749 35.9219 8.22363 35.9365 8.19434C35.9658 8.16504 35.9951 8.13574 36.0244 8.10645L36.0903 8.04053C36.1782 7.99658 36.2734 7.98926 36.376 8.01855C36.4785 8.0332 36.5737 8.04053 36.6616 8.04053C36.7495 8.04053 36.8081 8.00391 36.8374 7.93066C36.8813 7.85742 36.9766 7.8208 37.123 7.8208C37.3135 7.8208 37.4746 8.02588 37.6064 8.43604C37.6211 8.50928 37.7236 8.7876 37.9141 9.271C38.1045 9.73975 38.3462 10.3623 38.6392 11.1387C38.9321 11.9004 39.269 12.7866 39.6499 13.7974C40.0454 14.8081 40.4556 15.8848 40.8804 17.0273C41.3052 18.1553 41.73 19.3271 42.1548 20.543C42.5942 21.7441 43.0117 22.9307 43.4072 24.1025C44.2275 26.4902 44.916 28.5044 45.4727 30.145C46.0293 31.7856 46.4761 33.126 46.813 34.166C47.1646 35.2061 47.4209 35.9824 47.582 36.4951C47.7578 37.0078 47.8677 37.3154 47.9116 37.418C47.9849 37.6523 48.0435 37.8428 48.0874 37.9893C48.1313 38.1211 48.1533 38.2456 48.1533 38.3628ZM38.6831 23.3335C38.3022 22.2495 37.8848 21.0337 37.4307 19.686C36.9912 18.3384 36.5591 17.0054 36.1343 15.687C35.8853 16.3315 35.585 17.1079 35.2334 18.0161C34.8818 18.9243 34.5083 19.8618 34.1128 20.8286C33.7319 21.7954 33.3584 22.7402 32.9922 23.6631C32.626 24.5859 32.3037 25.377 32.0254 26.0361L31.4102 27.4863L35.3652 27.2446C35.7021 27.2446 36.105 27.2373 36.5737 27.2227C37.3647 27.208 38.5073 27.186 40.0015 27.1567L38.6831 23.3335ZM56.8765 37.6157C56.8911 37.8208 56.8325 38.0259 56.7007 38.231C56.5835 38.4214 56.437 38.5972 56.2612 38.7583C56.1001 38.9194 55.9316 39.0439 55.7559 39.1318C55.5947 39.2344 55.4702 39.293 55.3823 39.3076C55.1772 39.3369 54.9502 39.3149 54.7012 39.2417C54.4521 39.1685 54.2617 39.0732 54.1299 38.9561C54.0273 38.8682 53.9541 38.7656 53.9102 38.6484C53.8809 38.5166 53.8442 38.3335 53.8003 38.0991C53.7271 37.7622 53.6538 37.4912 53.5806 37.2861C53.522 37.0664 53.4707 36.8833 53.4268 36.7368C53.3828 36.5757 53.3389 36.4292 53.2949 36.2974C53.2656 36.1655 53.2437 36.0044 53.229 35.814C53.0679 34.0269 52.9727 32.2471 52.9434 30.4746C52.9141 28.6875 52.9287 26.9736 52.9873 25.333C53.0459 23.6924 53.1338 22.1689 53.251 20.7627C53.3828 19.3418 53.5073 18.1113 53.6245 17.0713C53.7563 16.0166 53.8735 15.1816 53.9761 14.5664C54.0786 13.9512 54.1445 13.6216 54.1738 13.5776C54.2178 13.4604 54.3423 13.3506 54.5474 13.248C54.7671 13.1455 55.0161 13.0723 55.2944 13.0283C55.4995 12.999 55.6533 12.9697 55.7559 12.9404C55.8584 12.9111 55.9463 12.8818 56.0195 12.8525C56.0928 12.8086 56.1733 12.772 56.2612 12.7427C56.3638 12.6987 56.5176 12.6475 56.7227 12.5889C56.8984 12.5449 57.001 12.6328 57.0303 12.8525C57.0596 13.0723 57.0522 13.4751 57.0083 14.061C56.9644 14.647 56.8984 15.4453 56.8105 16.4561C56.7373 17.4668 56.6787 18.7412 56.6348 20.2793C56.7959 20.3086 56.9717 20.3232 57.1621 20.3232C57.3672 20.3232 57.5869 20.3232 57.8213 20.3232C58.5977 20.3232 59.4985 20.2427 60.5239 20.0815C61.5493 19.9204 62.5747 19.6348 63.6001 19.2246C64.6401 18.7998 65.6216 18.2285 66.5444 17.5107C67.4673 16.7783 68.2144 15.8555 68.7856 14.7422C68.8735 14.5225 68.9175 14.2661 68.9175 13.9731C68.9175 13.563 68.7783 13.1602 68.5 12.7646C68.2363 12.3545 67.8115 11.9956 67.2256 11.688C66.6396 11.3657 65.8779 11.1094 64.9404 10.9189C64.0029 10.7139 62.875 10.6113 61.5566 10.6113C60.7803 10.6113 59.9746 10.6699 59.1396 10.7871C58.3047 10.9043 57.4551 11.0947 56.5908 11.3584C55.7266 11.6221 54.855 11.9663 53.9761 12.3911C53.0972 12.8159 52.2329 13.3433 51.3833 13.9731C51.3394 14.0171 51.2588 14.0537 51.1416 14.083C51.0244 14.0977 50.9072 14.105 50.79 14.105C50.5703 14.105 50.3579 14.0244 50.1528 13.8633C49.9478 13.7021 49.8452 13.5337 49.8452 13.3579C49.8452 13.27 49.8745 13.1968 49.9331 13.1382C49.9917 13.0649 50.0576 12.999 50.1309 12.9404C50.2188 12.8818 50.292 12.8306 50.3506 12.7866C50.4092 12.7427 50.4385 12.7061 50.4385 12.6768C50.4385 12.6328 50.4092 12.5742 50.3506 12.501C50.292 12.4277 50.2627 12.3325 50.2627 12.2153C50.2627 12.2007 50.2261 12.186 50.1528 12.1714C50.0796 12.1567 49.9917 12.1348 49.8892 12.1055C49.8013 12.0762 49.7207 12.0322 49.6475 11.9736C49.5742 11.9004 49.5376 11.8052 49.5376 11.688C49.5376 11.6001 49.5815 11.5269 49.6694 11.4683C49.772 11.4097 49.8892 11.3291 50.021 11.2266C50.1968 11.124 50.5044 10.9263 50.9438 10.6333C51.3833 10.3403 51.9106 10.0107 52.5259 9.64453C53.1558 9.27832 53.8516 8.89746 54.6133 8.50195C55.375 8.10645 56.1733 7.74756 57.0083 7.42529C57.8579 7.08838 58.7222 6.81738 59.6011 6.6123C60.48 6.39258 61.3369 6.28271 62.1719 6.28271C63.0215 6.28271 63.8345 6.4292 64.6108 6.72217C65.3872 7.01514 66.1123 7.40332 66.7861 7.88672C67.46 8.37012 68.0679 8.93408 68.6099 9.57861C69.1519 10.2085 69.6133 10.875 69.9941 11.5781C70.3896 12.2666 70.6899 12.9697 70.895 13.6875C71.1147 14.3906 71.2246 15.0571 71.2246 15.687C71.2246 16.4194 70.9829 17.1226 70.4995 17.7964C70.0308 18.4702 69.4229 19.1001 68.6758 19.686C67.9434 20.272 67.1377 20.8066 66.2588 21.29C65.3799 21.7588 64.5449 22.1689 63.7539 22.5205C63.0068 22.8428 62.2378 23.0771 61.4468 23.2236C60.6704 23.3555 59.9526 23.436 59.2935 23.4653C60.0259 23.7437 60.7949 24.1245 61.6006 24.6079C62.4209 25.0913 63.2266 25.7651 64.0176 26.6294C64.4131 27.0688 64.8013 27.6621 65.1821 28.4092C65.563 29.1416 65.9438 29.9546 66.3247 30.8481C66.7056 31.7417 67.0864 32.6865 67.4673 33.6826C67.8628 34.6787 68.2729 35.6675 68.6978 36.6489C69.1372 37.6157 69.5986 38.5386 70.082 39.4175C70.5801 40.311 71.1074 41.0947 71.6641 41.7686C72.2354 42.4424 72.8433 42.9771 73.4878 43.3726C74.147 43.7827 74.8647 43.9878 75.6411 43.9878C76.3442 43.9878 77.106 43.8047 77.9263 43.4385C78.7612 43.0869 79.6621 42.479 80.6289 41.6147C80.9951 41.3218 81.2295 41.0874 81.332 40.9116C81.4492 40.7505 81.5298 40.6699 81.5737 40.6699C81.6177 40.6699 81.647 40.6992 81.6616 40.7578C81.6909 40.8164 81.7056 40.875 81.7056 40.9336C81.7202 41.0068 81.7275 41.0728 81.7275 41.1313C81.7275 41.1899 81.7349 41.2266 81.7495 41.2412V41.2852C81.7495 41.3584 81.7202 41.4243 81.6616 41.4829C81.7056 41.4829 81.7349 41.5049 81.7495 41.5488C81.7788 41.6074 81.7935 41.6733 81.7935 41.7466C81.7935 41.8638 81.7642 41.981 81.7056 42.0981C81.603 42.2446 81.4785 42.501 81.332 42.8672C81.1855 43.248 80.9878 43.6729 80.7388 44.1416C80.5044 44.6104 80.2114 45.0938 79.8599 45.5918C79.5083 46.1045 79.0762 46.5732 78.5635 46.998C78.0654 47.4229 77.4648 47.7671 76.7617 48.0308C76.0586 48.3091 75.2456 48.4482 74.3228 48.4482C73.7661 48.4482 73.1875 48.375 72.5869 48.2285C72.001 48.082 71.4077 47.8257 70.8071 47.4595C70.2212 47.1079 69.6353 46.6392 69.0493 46.0532C68.4634 45.4673 67.8994 44.7349 67.3574 43.856C67.0791 43.4312 66.7861 42.7646 66.4785 41.8564C66.1855 40.9482 65.8706 39.9229 65.5337 38.7803C65.2114 37.623 64.8672 36.4072 64.501 35.1328C64.1348 33.8584 63.7393 32.6353 63.3145 31.4634C62.8896 30.2915 62.4282 29.2368 61.9302 28.2993C61.4468 27.3472 60.9268 26.6221 60.3701 26.124C60.0625 25.8604 59.7476 25.604 59.4253 25.355C59.103 25.106 58.7808 24.8936 58.4585 24.7178C58.1509 24.5273 57.8433 24.3809 57.5356 24.2783C57.228 24.1611 56.9424 24.1025 56.6787 24.1025H56.5908C56.5908 24.8936 56.5908 25.7358 56.5908 26.6294C56.6055 27.5229 56.6128 28.4238 56.6128 29.332C56.6274 30.2256 56.6421 31.1045 56.6567 31.9688C56.6714 32.833 56.686 33.6387 56.7007 34.3857C56.73 35.1182 56.7593 35.77 56.7886 36.3413C56.8179 36.8979 56.8472 37.3228 56.8765 37.6157ZM97.0645 9.4248C97.0352 10.0986 96.9985 10.9775 96.9546 12.0615C96.9253 13.1309 96.8887 14.332 96.8447 15.665C96.8154 16.9834 96.7788 18.3896 96.7349 19.8838C96.7056 21.3779 96.6763 22.8794 96.647 24.3882C96.6177 25.897 96.5957 27.3691 96.5811 28.8047C96.5664 30.2402 96.5591 31.5659 96.5591 32.7817C96.5591 34.144 96.5664 35.3086 96.5811 36.2754C96.6104 37.2422 96.647 37.9087 96.6909 38.2749C96.7202 38.3921 96.7202 38.4727 96.6909 38.5166C96.6763 38.5605 96.647 38.5898 96.603 38.6045C96.5591 38.6191 96.5078 38.6338 96.4492 38.6484C96.3906 38.6484 96.3394 38.6631 96.2954 38.6924C96.2515 38.7217 96.2295 38.7656 96.2295 38.8242C96.2295 38.8828 96.2295 38.9414 96.2295 39C96.2295 39.0586 96.2222 39.1099 96.2075 39.1538C96.1929 39.1978 96.1489 39.2197 96.0757 39.2197C95.6069 39.2197 95.2554 39.1758 95.021 39.0879C94.8013 39 94.5962 38.8535 94.4058 38.6484C94.186 38.4141 93.9883 38.1504 93.8125 37.8574C93.6514 37.5645 93.5488 37.2275 93.5049 36.8467C93.4902 36.7148 93.4683 36.5391 93.439 36.3193C93.4097 36.0996 93.373 35.8579 93.3291 35.5942C93.2998 35.3159 93.2705 35.0156 93.2412 34.6934C93.2266 34.3711 93.2266 34.0342 93.2412 33.6826C93.2412 33.2725 93.2339 32.8696 93.2192 32.4741C93.2046 32.0786 93.1826 31.6904 93.1533 31.3096C92.9775 31.7637 92.7725 32.2837 92.5381 32.8696C92.3037 33.4409 92.0181 34.0269 91.6812 34.6274C91.3442 35.228 90.9561 35.814 90.5166 36.3853C90.0918 36.9565 89.5938 37.4692 89.0225 37.9233C88.4658 38.3628 87.8359 38.7217 87.1328 39C86.4297 39.2637 85.646 39.3955 84.7817 39.3955C84.0933 39.3955 83.3682 39.3076 82.6064 39.1318C81.5957 38.8682 80.7241 38.48 79.9917 37.9673C79.2593 37.4546 78.6367 36.832 78.124 36.0996C77.6113 35.3525 77.1865 34.5103 76.8496 33.5728C76.5273 32.6206 76.2563 31.5806 76.0366 30.4526C75.9634 30.0425 75.9048 29.5957 75.8608 29.1123C75.8315 28.6143 75.8169 28.0576 75.8169 27.4424C75.8169 26.1973 75.8755 24.813 75.9927 23.2896C76.1099 21.7661 76.2417 20.2207 76.3882 18.6533C76.5347 17.0859 76.6738 15.5552 76.8057 14.061C76.9375 12.5522 77.0181 11.2046 77.0474 10.0181C77.0474 9.63721 77.0767 9.34424 77.1353 9.13916C77.2085 8.91943 77.3989 8.75098 77.7065 8.63379C77.7651 8.61914 77.8237 8.62646 77.8823 8.65576C77.9409 8.67041 77.9995 8.68506 78.0581 8.69971C78.1167 8.69971 78.1826 8.68506 78.2559 8.65576C78.3291 8.62646 78.4023 8.56787 78.4756 8.47998C78.5635 8.34814 78.644 8.28223 78.7173 8.28223C78.7905 8.26758 78.8491 8.28955 78.8931 8.34814C78.9517 8.40674 79.0029 8.47266 79.0469 8.5459C79.1055 8.61914 79.1567 8.66309 79.2007 8.67773C79.2593 8.70703 79.3472 8.78027 79.4644 8.89746C79.5962 9.01465 79.7207 9.15381 79.8379 9.31494C79.9551 9.46143 80.0576 9.61523 80.1455 9.77637C80.2334 9.92285 80.2773 10.0474 80.2773 10.1499C80.2773 10.2671 80.3213 10.4795 80.4092 10.7871C80.4971 11.0947 80.5557 11.5269 80.585 12.0835C80.6289 12.8013 80.6289 13.6729 80.585 14.6982C80.5557 15.709 80.5044 16.8003 80.4312 17.9722C80.3579 19.1294 80.2773 20.3159 80.1895 21.5317C80.1016 22.7476 80.021 23.9194 79.9478 25.0474C79.8745 26.1753 79.8159 27.2153 79.772 28.1675C79.728 29.105 79.728 29.8813 79.772 30.4966C79.8745 31.9028 79.9917 33.0088 80.1235 33.8145C80.27 34.6055 80.4238 35.0449 80.585 35.1328C80.7461 35.2207 80.9365 35.2793 81.1562 35.3086C81.3906 35.3379 81.6982 35.3525 82.0791 35.3525C84.2178 35.25 85.9976 34.8545 87.4185 34.166C88.8394 33.4629 89.9819 32.4302 90.8462 31.0679C91.7251 29.7056 92.3696 27.9844 92.7798 25.9043C93.2046 23.8096 93.4756 21.3193 93.5928 18.4336C93.6367 17.2324 93.688 16.1631 93.7466 15.2256C93.8052 14.2881 93.8638 13.4385 93.9224 12.6768C93.9956 11.915 94.0688 11.2192 94.1421 10.5894C94.23 9.95947 94.3179 9.35156 94.4058 8.76562C94.4351 8.67773 94.5083 8.60449 94.6255 8.5459C94.7427 8.4873 94.8525 8.43604 94.9551 8.39209C95.0283 8.31885 95.0649 8.25293 95.0649 8.19434C95.0796 8.12109 95.1455 8.06982 95.2627 8.04053C95.3213 8.02588 95.4019 8.01123 95.5044 7.99658C95.6069 7.96729 95.7095 7.96729 95.812 7.99658C95.9292 8.01123 96.0317 8.04785 96.1196 8.10645C96.2222 8.16504 96.2954 8.26025 96.3394 8.39209C96.3833 8.49463 96.4712 8.56787 96.603 8.61182C96.7349 8.65576 96.8447 8.72168 96.9326 8.80957C96.9766 8.88281 97.0132 8.96338 97.0425 9.05127C97.0864 9.13916 97.0938 9.26367 97.0645 9.4248ZM124.992 10.3257C124.875 10.9263 124.589 11.5195 124.135 12.1055C123.695 12.6768 123.197 13.1675 122.641 13.5776C122.567 13.6509 122.421 13.7314 122.201 13.8193C121.996 13.9072 121.769 14.0024 121.52 14.105C121.286 14.1929 121.051 14.2734 120.817 14.3467C120.583 14.4199 120.399 14.4639 120.268 14.4785C120.15 14.5078 120.055 14.5005 119.982 14.4565C119.923 14.4126 119.865 14.3613 119.806 14.3027C119.748 14.2441 119.674 14.1929 119.586 14.1489C119.513 14.0903 119.403 14.061 119.257 14.061C119.081 14.061 118.971 14.0244 118.927 13.9512C118.898 13.8633 118.92 13.7095 118.993 13.4897C119.022 13.4165 119.074 13.314 119.147 13.1821C119.22 13.0503 119.337 12.8818 119.499 12.6768C119.616 12.5449 119.711 12.3984 119.784 12.2373C119.872 12.0762 119.887 11.9297 119.828 11.7979C119.784 11.6514 119.645 11.5342 119.411 11.4463C119.176 11.3584 118.81 11.3145 118.312 11.3145C117.799 11.3145 117.14 11.3804 116.334 11.5122C115.456 11.6294 114.54 11.8491 113.588 12.1714C112.65 12.4937 111.735 12.8672 110.841 13.292C109.962 13.7168 109.149 14.1709 108.402 14.6543C107.655 15.1377 107.04 15.6138 106.557 16.0825C106.088 16.5366 105.788 16.9688 105.656 17.3789C105.524 17.7744 105.634 18.0967 105.985 18.3457C106.293 18.5654 106.762 18.7559 107.392 18.917C108.021 19.0635 108.747 19.2026 109.567 19.3345C110.387 19.4517 111.266 19.5835 112.204 19.73C113.141 19.8618 114.071 20.0229 114.994 20.2134C115.932 20.4038 116.818 20.6382 117.653 20.9165C118.502 21.1948 119.25 21.5391 119.894 21.9492C120.348 22.2568 120.729 22.5498 121.037 22.8281C121.344 23.1064 121.593 23.3848 121.784 23.6631C121.974 23.9268 122.128 24.1904 122.245 24.4541C122.362 24.7031 122.465 24.9595 122.553 25.2231C122.611 25.3843 122.714 25.5674 122.86 25.7725C123.021 25.9629 123.19 26.1973 123.366 26.4756C123.542 26.7539 123.703 27.0762 123.849 27.4424C123.996 27.7939 124.091 28.2114 124.135 28.6948C124.193 29.6616 123.996 30.5771 123.542 31.4414C123.102 32.3057 122.523 33.104 121.806 33.8364C121.103 34.5688 120.319 35.228 119.455 35.814C118.59 36.3853 117.763 36.8613 116.972 37.2422C116.283 37.5791 115.551 37.894 114.774 38.187C113.998 38.48 113.2 38.7363 112.379 38.9561C111.559 39.1611 110.724 39.3223 109.875 39.4395C109.04 39.5713 108.212 39.6372 107.392 39.6372C106.029 39.6372 104.748 39.4468 103.546 39.0659C102.36 38.6997 101.327 38.0771 100.448 37.1982C100.023 36.7441 99.7158 36.29 99.5254 35.8359C99.335 35.3672 99.2397 34.9058 99.2397 34.4517C99.2397 33.9097 99.3496 33.3823 99.5693 32.8696C99.7891 32.3569 100.075 31.8735 100.426 31.4194C100.778 30.9653 101.166 30.5625 101.591 30.2109C102.016 29.8447 102.433 29.5518 102.843 29.332C103.415 29.0098 104.008 28.7021 104.623 28.4092C105.253 28.1016 105.883 27.8306 106.513 27.5962C107.143 27.3472 107.772 27.1421 108.402 26.981C109.032 26.8198 109.64 26.7173 110.226 26.6733C110.475 26.644 110.79 26.6147 111.171 26.5854C111.552 26.5562 111.911 26.5415 112.248 26.5415C112.467 26.5415 112.65 26.6001 112.797 26.7173C112.943 26.8345 113.002 26.937 112.973 27.0249C112.899 27.186 112.768 27.2666 112.577 27.2666C112.401 27.2666 112.189 27.2959 111.94 27.3545C111.662 27.4277 111.383 27.479 111.105 27.5083C110.827 27.5376 110.578 27.5889 110.358 27.6621C108.688 28.043 107.274 28.5264 106.117 29.1123C104.975 29.6982 104.059 30.2915 103.371 30.8921C102.697 31.4927 102.235 32.064 101.986 32.606C101.737 33.1333 101.664 33.5361 101.767 33.8145C101.913 34.21 102.184 34.5176 102.58 34.7373C102.975 34.957 103.422 35.1182 103.92 35.2207C104.418 35.3086 104.923 35.3599 105.436 35.3745C105.949 35.3892 106.388 35.3818 106.754 35.3525C107.604 35.3086 108.549 35.1841 109.589 34.979C110.644 34.7739 111.706 34.5029 112.775 34.166C113.859 33.8291 114.914 33.4336 115.939 32.9795C116.964 32.5107 117.873 32.0054 118.664 31.4634C119.455 30.9067 120.092 30.3135 120.575 29.6836C121.059 29.0391 121.3 28.3652 121.3 27.6621C121.3 27.4277 121.264 27.2007 121.19 26.981C121.132 26.7466 121.044 26.5049 120.927 26.2559C120.707 25.8311 120.29 25.4722 119.674 25.1792C119.059 24.8716 118.319 24.6152 117.455 24.4102C116.605 24.1904 115.675 24 114.665 23.8389C113.668 23.6631 112.68 23.4873 111.698 23.3115C110.731 23.1357 109.809 22.938 108.93 22.7183C108.051 22.4985 107.311 22.2275 106.71 21.9053C106.037 21.5391 105.539 21.1802 105.216 20.8286C104.909 20.4624 104.733 20.0083 104.689 19.4663C104.674 19.4077 104.63 19.3052 104.557 19.1587C104.484 19.0122 104.396 18.8584 104.293 18.6973C104.206 18.5361 104.118 18.3823 104.03 18.2358C103.942 18.0894 103.876 17.9722 103.832 17.8843C103.598 17.4595 103.48 16.998 103.48 16.5C103.48 15.9434 103.605 15.3721 103.854 14.7861C104.118 14.2002 104.44 13.6948 104.821 13.27C105.524 12.4644 106.447 11.7173 107.589 11.0288C108.747 10.3403 110.006 9.73975 111.369 9.22705C112.731 8.71436 114.13 8.3042 115.565 7.99658C117.016 7.67432 118.385 7.49121 119.674 7.44727C120.202 7.43262 120.795 7.46924 121.454 7.55713C122.113 7.64502 122.721 7.80615 123.278 8.04053C123.849 8.26025 124.303 8.56055 124.64 8.94141C124.977 9.30762 125.094 9.76904 124.992 10.3257ZM142.57 37.6157C142.584 37.8208 142.526 38.0259 142.394 38.231C142.277 38.4214 142.13 38.5972 141.955 38.7583C141.793 38.9194 141.625 39.0439 141.449 39.1318C141.288 39.2344 141.164 39.293 141.076 39.3076C140.871 39.3369 140.644 39.3149 140.395 39.2417C140.146 39.1685 139.955 39.0732 139.823 38.9561C139.721 38.8682 139.647 38.7656 139.604 38.6484C139.574 38.5166 139.538 38.3335 139.494 38.0991C139.42 37.7622 139.347 37.4912 139.274 37.2861C139.215 37.0664 139.164 36.8833 139.12 36.7368C139.076 36.5757 139.032 36.4292 138.988 36.2974C138.959 36.1655 138.937 36.0044 138.922 35.814C138.761 34.0269 138.666 32.2471 138.637 30.4746C138.607 28.6875 138.622 26.9736 138.681 25.333C138.739 23.6924 138.827 22.1689 138.944 20.7627C139.076 19.3418 139.201 18.1113 139.318 17.0713C139.45 16.0166 139.567 15.1816 139.669 14.5664C139.772 13.9512 139.838 13.6216 139.867 13.5776C139.911 13.4604 140.036 13.3506 140.241 13.248C140.46 13.1455 140.709 13.0723 140.988 13.0283C141.193 12.999 141.347 12.9697 141.449 12.9404C141.552 12.9111 141.64 12.8818 141.713 12.8525C141.786 12.8086 141.867 12.772 141.955 12.7427C142.057 12.6987 142.211 12.6475 142.416 12.5889C142.592 12.5449 142.694 12.6328 142.724 12.8525C142.753 13.0723 142.746 13.4751 142.702 14.061C142.658 14.647 142.592 15.4453 142.504 16.4561C142.431 17.4668 142.372 18.7412 142.328 20.2793C142.489 20.3086 142.665 20.3232 142.855 20.3232C143.061 20.3232 143.28 20.3232 143.515 20.3232C144.291 20.3232 145.192 20.2427 146.217 20.0815C147.243 19.9204 148.268 19.6348 149.293 19.2246C150.333 18.7998 151.315 18.2285 152.238 17.5107C153.161 16.7783 153.908 15.8555 154.479 14.7422C154.567 14.5225 154.611 14.2661 154.611 13.9731C154.611 13.563 154.472 13.1602 154.193 12.7646C153.93 12.3545 153.505 11.9956 152.919 11.688C152.333 11.3657 151.571 11.1094 150.634 10.9189C149.696 10.7139 148.568 10.6113 147.25 10.6113C146.474 10.6113 145.668 10.6699 144.833 10.7871C143.998 10.9043 143.148 11.0947 142.284 11.3584C141.42 11.6221 140.548 11.9663 139.669 12.3911C138.791 12.8159 137.926 13.3433 137.077 13.9731C137.033 14.0171 136.952 14.0537 136.835 14.083C136.718 14.0977 136.601 14.105 136.483 14.105C136.264 14.105 136.051 14.0244 135.846 13.8633C135.641 13.7021 135.539 13.5337 135.539 13.3579C135.539 13.27 135.568 13.1968 135.626 13.1382C135.685 13.0649 135.751 12.999 135.824 12.9404C135.912 12.8818 135.985 12.8306 136.044 12.7866C136.103 12.7427 136.132 12.7061 136.132 12.6768C136.132 12.6328 136.103 12.5742 136.044 12.501C135.985 12.4277 135.956 12.3325 135.956 12.2153C135.956 12.2007 135.919 12.186 135.846 12.1714C135.773 12.1567 135.685 12.1348 135.583 12.1055C135.495 12.0762 135.414 12.0322 135.341 11.9736C135.268 11.9004 135.231 11.8052 135.231 11.688C135.231 11.6001 135.275 11.5269 135.363 11.4683C135.465 11.4097 135.583 11.3291 135.714 11.2266C135.89 11.124 136.198 10.9263 136.637 10.6333C137.077 10.3403 137.604 10.0107 138.219 9.64453C138.849 9.27832 139.545 8.89746 140.307 8.50195C141.068 8.10645 141.867 7.74756 142.702 7.42529C143.551 7.08838 144.416 6.81738 145.294 6.6123C146.173 6.39258 147.03 6.28271 147.865 6.28271C148.715 6.28271 149.528 6.4292 150.304 6.72217C151.081 7.01514 151.806 7.40332 152.479 7.88672C153.153 8.37012 153.761 8.93408 154.303 9.57861C154.845 10.2085 155.307 10.875 155.688 11.5781C156.083 12.2666 156.383 12.9697 156.588 13.6875C156.808 14.3906 156.918 15.0571 156.918 15.687C156.918 16.4194 156.676 17.1226 156.193 17.7964C155.724 18.4702 155.116 19.1001 154.369 19.686C153.637 20.272 152.831 20.8066 151.952 21.29C151.073 21.7588 150.238 22.1689 149.447 22.5205C148.7 22.8428 147.931 23.0771 147.14 23.2236C146.364 23.3555 145.646 23.436 144.987 23.4653C145.719 23.7437 146.488 24.1245 147.294 24.6079C148.114 25.0913 148.92 25.7651 149.711 26.6294C150.106 27.0688 150.495 27.6621 150.875 28.4092C151.256 29.1416 151.637 29.9546 152.018 30.8481C152.399 31.7417 152.78 32.6865 153.161 33.6826C153.556 34.6787 153.966 35.6675 154.391 36.6489C154.831 37.6157 155.292 38.5386 155.775 39.4175C156.273 40.311 156.801 41.0947 157.357 41.7686C157.929 42.4424 158.537 42.9771 159.181 43.3726C159.84 43.7827 160.558 43.9878 161.334 43.9878C162.038 43.9878 162.799 43.8047 163.62 43.4385C164.455 43.0869 165.355 42.479 166.322 41.6147C166.688 41.3218 166.923 41.0874 167.025 40.9116C167.143 40.7505 167.223 40.6699 167.267 40.6699C167.311 40.6699 167.34 40.6992 167.355 40.7578C167.384 40.8164 167.399 40.875 167.399 40.9336C167.414 41.0068 167.421 41.0728 167.421 41.1313C167.421 41.1899 167.428 41.2266 167.443 41.2412V41.2852C167.443 41.3584 167.414 41.4243 167.355 41.4829C167.399 41.4829 167.428 41.5049 167.443 41.5488C167.472 41.6074 167.487 41.6733 167.487 41.7466C167.487 41.8638 167.458 41.981 167.399 42.0981C167.296 42.2446 167.172 42.501 167.025 42.8672C166.879 43.248 166.681 43.6729 166.432 44.1416C166.198 44.6104 165.905 45.0938 165.553 45.5918C165.202 46.1045 164.77 46.5732 164.257 46.998C163.759 47.4229 163.158 47.7671 162.455 48.0308C161.752 48.3091 160.939 48.4482 160.016 48.4482C159.459 48.4482 158.881 48.375 158.28 48.2285C157.694 48.082 157.101 47.8257 156.5 47.4595C155.915 47.1079 155.329 46.6392 154.743 46.0532C154.157 45.4673 153.593 44.7349 153.051 43.856C152.772 43.4312 152.479 42.7646 152.172 41.8564C151.879 40.9482 151.564 39.9229 151.227 38.7803C150.905 37.623 150.561 36.4072 150.194 35.1328C149.828 33.8584 149.433 32.6353 149.008 31.4634C148.583 30.2915 148.122 29.2368 147.624 28.2993C147.14 27.3472 146.62 26.6221 146.063 26.124C145.756 25.8604 145.441 25.604 145.119 25.355C144.796 25.106 144.474 24.8936 144.152 24.7178C143.844 24.5273 143.537 24.3809 143.229 24.2783C142.921 24.1611 142.636 24.1025 142.372 24.1025H142.284C142.284 24.8936 142.284 25.7358 142.284 26.6294C142.299 27.5229 142.306 28.4238 142.306 29.332C142.321 30.2256 142.335 31.1045 142.35 31.9688C142.365 32.833 142.379 33.6387 142.394 34.3857C142.423 35.1182 142.453 35.77 142.482 36.3413C142.511 36.8979 142.541 37.3228 142.57 37.6157ZM182.758 9.4248C182.729 10.0986 182.692 10.9775 182.648 12.0615C182.619 13.1309 182.582 14.332 182.538 15.665C182.509 16.9834 182.472 18.3896 182.428 19.8838C182.399 21.3779 182.37 22.8794 182.34 24.3882C182.311 25.897 182.289 27.3691 182.274 28.8047C182.26 30.2402 182.252 31.5659 182.252 32.7817C182.252 34.144 182.26 35.3086 182.274 36.2754C182.304 37.2422 182.34 37.9087 182.384 38.2749C182.414 38.3921 182.414 38.4727 182.384 38.5166C182.37 38.5605 182.34 38.5898 182.296 38.6045C182.252 38.6191 182.201 38.6338 182.143 38.6484C182.084 38.6484 182.033 38.6631 181.989 38.6924C181.945 38.7217 181.923 38.7656 181.923 38.8242C181.923 38.8828 181.923 38.9414 181.923 39C181.923 39.0586 181.916 39.1099 181.901 39.1538C181.886 39.1978 181.842 39.2197 181.769 39.2197C181.3 39.2197 180.949 39.1758 180.714 39.0879C180.495 39 180.29 38.8535 180.099 38.6484C179.879 38.4141 179.682 38.1504 179.506 37.8574C179.345 37.5645 179.242 37.2275 179.198 36.8467C179.184 36.7148 179.162 36.5391 179.132 36.3193C179.103 36.0996 179.066 35.8579 179.022 35.5942C178.993 35.3159 178.964 35.0156 178.935 34.6934C178.92 34.3711 178.92 34.0342 178.935 33.6826C178.935 33.2725 178.927 32.8696 178.913 32.4741C178.898 32.0786 178.876 31.6904 178.847 31.3096C178.671 31.7637 178.466 32.2837 178.231 32.8696C177.997 33.4409 177.711 34.0269 177.375 34.6274C177.038 35.228 176.649 35.814 176.21 36.3853C175.785 36.9565 175.287 37.4692 174.716 37.9233C174.159 38.3628 173.529 38.7217 172.826 39C172.123 39.2637 171.339 39.3955 170.475 39.3955C169.787 39.3955 169.062 39.3076 168.3 39.1318C167.289 38.8682 166.417 38.48 165.685 37.9673C164.953 37.4546 164.33 36.832 163.817 36.0996C163.305 35.3525 162.88 34.5103 162.543 33.5728C162.221 32.6206 161.95 31.5806 161.73 30.4526C161.657 30.0425 161.598 29.5957 161.554 29.1123C161.525 28.6143 161.51 28.0576 161.51 27.4424C161.51 26.1973 161.569 24.813 161.686 23.2896C161.803 21.7661 161.935 20.2207 162.082 18.6533C162.228 17.0859 162.367 15.5552 162.499 14.061C162.631 12.5522 162.711 11.2046 162.741 10.0181C162.741 9.63721 162.77 9.34424 162.829 9.13916C162.902 8.91943 163.092 8.75098 163.4 8.63379C163.458 8.61914 163.517 8.62646 163.576 8.65576C163.634 8.67041 163.693 8.68506 163.751 8.69971C163.81 8.69971 163.876 8.68506 163.949 8.65576C164.022 8.62646 164.096 8.56787 164.169 8.47998C164.257 8.34814 164.337 8.28223 164.411 8.28223C164.484 8.26758 164.542 8.28955 164.586 8.34814C164.645 8.40674 164.696 8.47266 164.74 8.5459C164.799 8.61914 164.85 8.66309 164.894 8.67773C164.953 8.70703 165.041 8.78027 165.158 8.89746C165.29 9.01465 165.414 9.15381 165.531 9.31494C165.648 9.46143 165.751 9.61523 165.839 9.77637C165.927 9.92285 165.971 10.0474 165.971 10.1499C165.971 10.2671 166.015 10.4795 166.103 10.7871C166.19 11.0947 166.249 11.5269 166.278 12.0835C166.322 12.8013 166.322 13.6729 166.278 14.6982C166.249 15.709 166.198 16.8003 166.125 17.9722C166.051 19.1294 165.971 20.3159 165.883 21.5317C165.795 22.7476 165.714 23.9194 165.641 25.0474C165.568 26.1753 165.509 27.2153 165.465 28.1675C165.421 29.105 165.421 29.8813 165.465 30.4966C165.568 31.9028 165.685 33.0088 165.817 33.8145C165.963 34.6055 166.117 35.0449 166.278 35.1328C166.439 35.2207 166.63 35.2793 166.85 35.3086C167.084 35.3379 167.392 35.3525 167.772 35.3525C169.911 35.25 171.691 34.8545 173.112 34.166C174.533 33.4629 175.675 32.4302 176.54 31.0679C177.418 29.7056 178.063 27.9844 178.473 25.9043C178.898 23.8096 179.169 21.3193 179.286 18.4336C179.33 17.2324 179.381 16.1631 179.44 15.2256C179.499 14.2881 179.557 13.4385 179.616 12.6768C179.689 11.915 179.762 11.2192 179.835 10.5894C179.923 9.95947 180.011 9.35156 180.099 8.76562C180.128 8.67773 180.202 8.60449 180.319 8.5459C180.436 8.4873 180.546 8.43604 180.648 8.39209C180.722 8.31885 180.758 8.25293 180.758 8.19434C180.773 8.12109 180.839 8.06982 180.956 8.04053C181.015 8.02588 181.095 8.01123 181.198 7.99658C181.3 7.96729 181.403 7.96729 181.505 7.99658C181.623 8.01123 181.725 8.04785 181.813 8.10645C181.916 8.16504 181.989 8.26025 182.033 8.39209C182.077 8.49463 182.165 8.56787 182.296 8.61182C182.428 8.65576 182.538 8.72168 182.626 8.80957C182.67 8.88281 182.707 8.96338 182.736 9.05127C182.78 9.13916 182.787 9.26367 182.758 9.4248ZM211.85 8.17236C211.879 8.43604 211.894 8.98535 211.894 9.82031C211.894 10.6406 211.879 11.6514 211.85 12.8525C211.835 14.0537 211.806 15.394 211.762 16.8735C211.732 18.353 211.688 19.8911 211.63 21.4878C211.571 23.0698 211.505 24.6665 211.432 26.2778C211.374 27.8745 211.308 29.3906 211.234 30.8262C211.161 32.2617 211.081 33.5728 210.993 34.7593C210.905 35.9312 210.817 36.8833 210.729 37.6157C210.729 37.7036 210.685 37.7842 210.597 37.8574C210.524 37.916 210.443 38.0259 210.355 38.187C210.268 38.3335 210.18 38.4141 210.092 38.4287C210.004 38.4434 209.931 38.4434 209.872 38.4287C209.813 38.4141 209.77 38.4141 209.74 38.4287C209.711 38.4434 209.711 38.5166 209.74 38.6484C209.77 38.7363 209.718 38.8096 209.586 38.8682C209.469 38.9121 209.367 38.8975 209.279 38.8242C209.162 38.7363 209.022 38.6338 208.861 38.5166C208.7 38.3848 208.598 38.3188 208.554 38.3188C208.466 38.3042 208.437 38.3408 208.466 38.4287C208.495 38.5166 208.532 38.6118 208.576 38.7144C208.634 38.8169 208.671 38.9121 208.686 39C208.715 39.1025 208.671 39.1611 208.554 39.1758C208.334 39.2051 208.078 39.1538 207.785 39.022C207.506 38.8901 207.243 38.7363 206.994 38.5605C206.789 38.3994 206.481 38.0405 206.071 37.4839C205.661 36.9272 205.17 36.2241 204.599 35.3745C204.042 34.5103 203.419 33.5288 202.731 32.4302C202.057 31.3315 201.354 30.1597 200.622 28.9146C199.889 27.6694 199.142 26.3804 198.38 25.0474C197.619 23.7144 196.879 22.3887 196.161 21.0703C195.443 19.7373 194.755 18.4409 194.096 17.1812C193.437 15.9214 192.843 14.7495 192.316 13.6655C192.257 14.2808 192.206 15.123 192.162 16.1924C192.118 17.2471 192.074 18.4263 192.03 19.73C192.001 21.019 191.972 22.3813 191.942 23.8169C191.913 25.2524 191.884 26.666 191.854 28.0576C191.84 29.4492 191.825 30.7676 191.811 32.0127C191.796 33.2578 191.781 34.3271 191.767 35.2207C191.767 35.8066 191.752 36.2241 191.723 36.4731C191.708 36.7075 191.686 36.8687 191.657 36.9565C191.642 37.0444 191.62 37.1104 191.591 37.1543C191.576 37.1836 191.576 37.2861 191.591 37.4619C191.591 37.9307 191.562 38.3628 191.503 38.7583C191.444 39.1392 191.312 39.3516 191.107 39.3955C190.99 39.4541 190.88 39.4321 190.778 39.3296C190.675 39.2417 190.543 39.2197 190.382 39.2637C190.338 39.2637 190.28 39.3003 190.207 39.3735C190.148 39.4614 190.038 39.5054 189.877 39.5054C189.745 39.5054 189.584 39.4468 189.394 39.3296C189.203 39.2124 189.079 39 189.02 38.6924L188.932 37.8794C188.917 37.7915 188.896 37.7329 188.866 37.7036C188.852 37.6743 188.83 37.6304 188.8 37.5718C188.786 37.5132 188.771 37.418 188.756 37.2861C188.742 37.1396 188.727 36.8979 188.712 36.561C188.712 36.4731 188.727 36.063 188.756 35.3306C188.786 34.5835 188.822 33.624 188.866 32.4521C188.925 31.2803 188.983 29.9473 189.042 28.4531C189.115 26.959 189.188 25.4136 189.262 23.8169C189.35 22.2202 189.43 20.6309 189.503 19.0488C189.591 17.4668 189.679 16.002 189.767 14.6543C189.87 13.3066 189.965 12.1348 190.053 11.1387C190.141 10.1279 190.221 9.41016 190.294 8.98535C190.221 8.80957 190.163 8.64111 190.119 8.47998C190.089 8.31885 190.075 8.17236 190.075 8.04053C190.06 7.95264 190.067 7.89404 190.097 7.86475C190.141 7.83545 190.192 7.81348 190.25 7.79883C190.324 7.76953 190.397 7.74023 190.47 7.71094C190.543 7.68164 190.617 7.62305 190.69 7.53516C190.719 7.49121 190.741 7.38867 190.756 7.22754C190.785 7.05176 190.836 6.96387 190.91 6.96387C191.115 6.96387 191.283 6.91992 191.415 6.83203C191.547 6.72949 191.73 6.66357 191.964 6.63428C191.964 6.38525 192.03 6.22412 192.162 6.15088C192.221 6.10693 192.287 6.09229 192.36 6.10693C192.609 6.13623 192.799 6.23877 192.931 6.41455C193.078 6.57568 193.188 6.72949 193.261 6.87598C193.334 7.05176 193.393 7.18359 193.437 7.27148C193.48 7.35938 193.539 7.48389 193.612 7.64502C193.715 7.80615 193.913 8.15039 194.206 8.67773C194.513 9.20508 194.887 9.86426 195.326 10.6553C195.766 11.4463 196.264 12.3398 196.82 13.3359C197.377 14.3174 197.956 15.3647 198.556 16.478C199.171 17.5767 199.801 18.7046 200.446 19.8618C201.09 21.0044 201.72 22.125 202.335 23.2236C202.951 24.3223 203.537 25.3696 204.093 26.3657C204.65 27.3618 205.155 28.2627 205.609 29.0684C206.063 29.8594 206.444 30.5259 206.752 31.0679C207.06 31.5952 207.272 31.9468 207.389 32.1226C207.682 32.5474 207.887 32.7891 208.004 32.8477C208.122 32.8916 208.261 32.7524 208.422 32.4302C208.495 32.2837 208.561 31.9468 208.62 31.4194C208.693 30.8774 208.759 30.1963 208.817 29.376C208.891 28.5557 208.949 27.6255 208.993 26.5854C209.052 25.5454 209.103 24.4541 209.147 23.3115C209.191 22.1689 209.228 20.9971 209.257 19.7959C209.286 18.5947 209.301 17.4302 209.301 16.3022C209.315 15.1743 209.315 14.1123 209.301 13.1162C209.301 12.1201 209.279 11.2412 209.235 10.4795C209.22 10.0693 209.213 9.70313 209.213 9.38086C209.213 9.10254 209.228 8.84619 209.257 8.61182C209.286 8.37744 209.337 8.26025 209.411 8.26025C209.513 8.18701 209.601 8.14307 209.674 8.12842C209.762 8.09912 209.828 8.0918 209.872 8.10645C209.931 8.10645 209.982 8.11377 210.026 8.12842C210.07 8.14307 210.106 8.14307 210.136 8.12842C210.165 8.11377 210.18 8.0918 210.18 8.0625C210.18 8.0332 210.18 7.99658 210.18 7.95264C210.194 7.90869 210.216 7.86475 210.246 7.8208C210.275 7.76221 210.341 7.71826 210.443 7.68896C210.561 7.64502 210.648 7.62305 210.707 7.62305C210.78 7.6084 210.839 7.6084 210.883 7.62305C210.927 7.6377 210.963 7.65234 210.993 7.66699C211.022 7.68164 211.066 7.67432 211.125 7.64502C211.242 7.58643 211.337 7.53516 211.41 7.49121C211.483 7.43262 211.549 7.41064 211.608 7.42529C211.667 7.43994 211.71 7.50586 211.74 7.62305C211.784 7.72559 211.82 7.90869 211.85 8.17236Z" fill="#1E6EDF"/>
<path d="M117.321 65.1538C116.594 65.1538 115.964 64.9902 115.432 64.6631C114.904 64.3311 114.497 63.8745 114.208 63.2935C113.92 62.7075 113.776 62.0361 113.776 61.2793V60.2539C113.776 58.6914 114.104 57.4463 114.758 56.5186C115.412 55.5908 116.291 55.0171 117.395 54.7974C118.01 54.6851 118.454 54.5508 118.728 54.3945C119.006 54.2383 119.145 53.9819 119.145 53.6255H120.258L120.273 53.6694C120.283 54.2407 120.197 54.6753 120.017 54.9731C119.836 55.271 119.55 55.4907 119.16 55.6323C118.774 55.7739 118.276 55.896 117.666 55.9985C116.997 56.1108 116.425 56.3696 115.952 56.7749C115.483 57.1753 115.195 57.7637 115.087 58.54L115.117 58.5767C115.405 58.269 115.766 58.0176 116.201 57.8223C116.64 57.627 117.106 57.5293 117.6 57.5293C118.269 57.5293 118.847 57.6831 119.335 57.9907C119.824 58.2983 120.2 58.7231 120.463 59.2651C120.732 59.8022 120.866 60.4199 120.866 61.1182V61.2793C120.866 62.0361 120.722 62.7075 120.434 63.2935C120.146 63.8745 119.736 64.3311 119.204 64.6631C118.676 64.9902 118.049 65.1538 117.321 65.1538ZM117.321 64.0259C118.01 64.0259 118.532 63.7671 118.889 63.2495C119.245 62.7319 119.423 62.0752 119.423 61.2793V61.1182C119.423 60.415 119.243 59.8291 118.881 59.3604C118.525 58.8916 118 58.6572 117.307 58.6572C116.618 58.6572 116.098 58.8916 115.747 59.3604C115.395 59.8291 115.219 60.415 115.219 61.1182V61.2793C115.219 62.0752 115.395 62.7319 115.747 63.2495C116.098 63.7671 116.623 64.0259 117.321 64.0259ZM125.693 65.1538C124.96 65.1538 124.323 64.9878 123.781 64.6558C123.239 64.3188 122.819 63.8525 122.521 63.2568C122.229 62.6611 122.082 61.9727 122.082 61.1914V60.8691C122.082 60.1172 122.236 59.4458 122.543 58.855C122.856 58.2593 123.269 57.7905 123.781 57.4487C124.299 57.1021 124.863 56.9287 125.473 56.9287C126.538 56.9287 127.343 57.251 127.89 57.8955C128.442 58.54 128.718 59.3994 128.718 60.4736V61.3745H123.576L123.554 61.4111C123.569 62.1729 123.762 62.8003 124.133 63.2935C124.504 63.7817 125.024 64.0259 125.693 64.0259C126.181 64.0259 126.608 63.9575 126.975 63.8208C127.346 63.6792 127.666 63.4863 127.934 63.2422L128.498 64.1797C128.215 64.4531 127.839 64.6851 127.37 64.8755C126.906 65.061 126.347 65.1538 125.693 65.1538ZM123.62 60.2466H127.275V60.0562C127.275 59.4897 127.124 59.0161 126.821 58.6353C126.518 58.2544 126.069 58.064 125.473 58.064C124.99 58.064 124.577 58.269 124.235 58.6792C123.894 59.0845 123.684 59.5947 123.605 60.21L123.62 60.2466ZM129.831 65V64.0771L131.025 63.8721V58.2104L129.831 58.0054V57.0752H136.298V59.1187H135.361L135.258 58.2178H132.468V63.8721L133.662 64.0771V65H129.831ZM141.015 65.1538C140.283 65.1538 139.65 64.9829 139.118 64.6411C138.591 64.2944 138.183 63.8184 137.895 63.2129C137.607 62.6025 137.463 61.9067 137.463 61.1255V60.9644C137.463 60.1831 137.607 59.4897 137.895 58.8843C138.183 58.2739 138.591 57.7954 139.118 57.4487C139.65 57.1021 140.278 56.9287 141 56.9287C141.733 56.9287 142.363 57.1021 142.89 57.4487C143.422 57.7954 143.833 58.2715 144.121 58.877C144.409 59.4824 144.553 60.1782 144.553 60.9644V61.1255C144.553 61.9116 144.409 62.6099 144.121 63.2202C143.833 63.8257 143.425 64.2993 142.897 64.6411C142.37 64.9829 141.743 65.1538 141.015 65.1538ZM141.015 64.0259C141.699 64.0259 142.219 63.7524 142.575 63.2056C142.932 62.6587 143.11 61.9653 143.11 61.1255V60.9644C143.11 60.4077 143.029 59.9121 142.868 59.4775C142.712 59.0381 142.478 58.6938 142.165 58.4448C141.853 58.1909 141.464 58.064 141 58.064C140.542 58.064 140.156 58.1909 139.843 58.4448C139.531 58.6938 139.296 59.0381 139.14 59.4775C138.984 59.9121 138.906 60.4077 138.906 60.9644V61.1255C138.906 61.9653 139.082 62.6587 139.433 63.2056C139.79 63.7524 140.317 64.0259 141.015 64.0259ZM146.025 65V64.0771L147.219 63.8721V58.2104L146.025 58.0054V57.0752H150.339C151.384 57.0752 152.194 57.2583 152.771 57.6245C153.347 57.9858 153.635 58.5303 153.635 59.2578C153.635 59.6289 153.522 59.9609 153.298 60.2539C153.073 60.542 152.756 60.7617 152.346 60.9131C152.839 61.0352 153.225 61.2646 153.503 61.6016C153.781 61.9336 153.92 62.3145 153.92 62.7441C153.92 63.4863 153.649 64.0479 153.107 64.4287C152.57 64.8096 151.816 65 150.844 65H146.025ZM148.662 60.4224H150.346C151.577 60.4224 152.192 60.0586 152.192 59.3311C152.192 58.5742 151.574 58.1958 150.339 58.1958H148.662V60.4224ZM148.662 63.8867H150.844C151.928 63.8867 152.47 63.4937 152.47 62.7075C152.47 62.3315 152.333 62.041 152.06 61.8359C151.787 61.6309 151.381 61.5283 150.844 61.5283H148.662V63.8867ZM158.754 65.1538C158.022 65.1538 157.39 64.9829 156.857 64.6411C156.33 64.2944 155.922 63.8184 155.634 63.2129C155.346 62.6025 155.202 61.9067 155.202 61.1255V60.9644C155.202 60.1831 155.346 59.4897 155.634 58.8843C155.922 58.2739 156.33 57.7954 156.857 57.4487C157.39 57.1021 158.017 56.9287 158.74 56.9287C159.472 56.9287 160.102 57.1021 160.629 57.4487C161.162 57.7954 161.572 58.2715 161.86 58.877C162.148 59.4824 162.292 60.1782 162.292 60.9644V61.1255C162.292 61.9116 162.148 62.6099 161.86 63.2202C161.572 63.8257 161.164 64.2993 160.637 64.6411C160.109 64.9829 159.482 65.1538 158.754 65.1538ZM158.754 64.0259C159.438 64.0259 159.958 63.7524 160.314 63.2056C160.671 62.6587 160.849 61.9653 160.849 61.1255V60.9644C160.849 60.4077 160.769 59.9121 160.607 59.4775C160.451 59.0381 160.217 58.6938 159.904 58.4448C159.592 58.1909 159.204 58.064 158.74 58.064C158.281 58.064 157.895 58.1909 157.583 58.4448C157.27 58.6938 157.036 59.0381 156.879 59.4775C156.723 59.9121 156.645 60.4077 156.645 60.9644V61.1255C156.645 61.9653 156.821 62.6587 157.172 63.2056C157.529 63.7524 158.056 64.0259 158.754 64.0259ZM163.764 65V64.0771L164.958 63.8721V58.2104L163.764 58.0054V57.0752H167.587V58.0054L166.394 58.2104V62.6855L166.438 62.7002L169.931 57.0752H172.568V58.0054L171.374 58.2104V63.8721L172.568 64.0771V65H168.737V64.0771L169.931 63.8721V59.3896L169.887 59.375L166.394 65H163.764ZM168.21 55.6836C167.502 55.6836 166.945 55.4932 166.54 55.1123C166.135 54.7266 165.932 54.2285 165.932 53.6182L165.947 53.5742H167.045C167.045 53.9258 167.138 54.2114 167.324 54.4312C167.514 54.6509 167.81 54.7607 168.21 54.7607C168.601 54.7607 168.891 54.6509 169.082 54.4312C169.272 54.2114 169.367 53.9258 169.367 53.5742H170.473L170.488 53.6182C170.483 54.2285 170.278 54.7266 169.873 55.1123C169.472 55.4932 168.918 55.6836 168.21 55.6836ZM177.724 65V64.0771L178.918 63.8721V58.2104L177.724 58.0054V57.0752H181.555V58.0054L180.361 58.2104V60.4224H181.123L182.778 58.2031C183.076 57.7881 183.366 57.4731 183.649 57.2583C183.938 57.0435 184.26 56.936 184.616 56.936C184.841 56.936 185.026 56.9653 185.173 57.0239C185.319 57.0776 185.485 57.1631 185.671 57.2803L185.466 58.2617C185.256 58.2275 185.134 58.208 185.1 58.2031C185.07 58.1982 185.007 58.1958 184.909 58.1958C184.729 58.1958 184.55 58.2617 184.375 58.3936C184.204 58.5254 184.052 58.6816 183.92 58.8623L182.39 60.8472L184.887 63.894L185.905 64.0771V65H183.979L181.298 61.6382H180.361V63.8721L181.555 64.0771V65H177.724ZM186.777 65L186.799 63.7695L187.099 63.7622C187.617 63.7622 187.976 63.5107 188.176 63.0078C188.381 62.5049 188.483 61.6553 188.483 60.459V58.2104L187.29 58.0054V57.0752H195.251V58.0054L194.057 58.2104V63.8721L195.251 64.0771V65H191.42V64.0771L192.614 63.8721V58.2178H189.926V60.459C189.926 62.0215 189.719 63.1689 189.304 63.9014C188.894 64.6338 188.188 65 187.187 65H186.777ZM198.173 68.2007C198.061 68.2007 197.915 68.186 197.734 68.1567C197.553 68.1323 197.414 68.1079 197.316 68.0835L197.463 66.9482C197.546 66.958 197.661 66.9653 197.807 66.9702C197.954 66.98 198.054 66.9849 198.107 66.9849C198.415 66.9849 198.664 66.8677 198.854 66.6333C199.05 66.3989 199.23 66.0791 199.396 65.6738L199.741 64.8389L196.936 58.1226L196.086 58.0054V57.0752H199.411V58.0054L198.452 58.1519L199.997 62.1143L200.371 63.147H200.415L202.246 58.1519L201.235 58.0054V57.0752H204.494V58.0054L203.674 58.1226L200.554 66.2158C200.334 66.792 200.041 67.2656 199.675 67.6367C199.309 68.0127 198.808 68.2007 198.173 68.2007ZM208.962 65.1538C208.234 65.1538 207.604 64.9902 207.072 64.6631C206.545 64.3311 206.137 63.8745 205.849 63.2935C205.561 62.7075 205.417 62.0361 205.417 61.2793V60.2539C205.417 58.6914 205.744 57.4463 206.398 56.5186C207.053 55.5908 207.932 55.0171 209.035 54.7974C209.65 54.6851 210.095 54.5508 210.368 54.3945C210.646 54.2383 210.786 53.9819 210.786 53.6255H211.899L211.914 53.6694C211.923 54.2407 211.838 54.6753 211.657 54.9731C211.477 55.271 211.191 55.4907 210.8 55.6323C210.415 55.7739 209.917 55.896 209.306 55.9985C208.637 56.1108 208.066 56.3696 207.592 56.7749C207.124 57.1753 206.835 57.7637 206.728 58.54L206.757 58.5767C207.045 58.269 207.407 58.0176 207.841 57.8223C208.281 57.627 208.747 57.5293 209.24 57.5293C209.909 57.5293 210.488 57.6831 210.976 57.9907C211.464 58.2983 211.84 58.7231 212.104 59.2651C212.373 59.8022 212.507 60.4199 212.507 61.1182V61.2793C212.507 62.0361 212.363 62.7075 212.075 63.2935C211.787 63.8745 211.376 64.3311 210.844 64.6631C210.317 64.9902 209.689 65.1538 208.962 65.1538ZM208.962 64.0259C209.65 64.0259 210.173 63.7671 210.529 63.2495C210.886 62.7319 211.064 62.0752 211.064 61.2793V61.1182C211.064 60.415 210.883 59.8291 210.522 59.3604C210.166 58.8916 209.641 58.6572 208.947 58.6572C208.259 58.6572 207.739 58.8916 207.387 59.3604C207.036 59.8291 206.86 60.415 206.86 61.1182V61.2793C206.86 62.0752 207.036 62.7319 207.387 63.2495C207.739 63.7671 208.264 64.0259 208.962 64.0259Z" fill="#FA9203"/>
</svg>
