<?xml version="1.0" standalone="no"?>
<!DOCTYPE svg PUBLIC "-//W3C//DTD SVG 20010904//EN"
 "http://www.w3.org/TR/2001/REC-SVG-20010904/DTD/svg10.dtd">
<svg version="1.0" xmlns="http://www.w3.org/2000/svg"
 width="260.000000pt" height="260.000000pt" viewBox="0 0 260.000000 260.000000"
 preserveAspectRatio="xMidYMid meet">
<metadata>
Created by potrace 1.11, written by Peter Selinger 2001-2013
</metadata>
<g transform="translate(0.000000,260.000000) scale(0.100000,-0.100000)"
fill="#000000" stroke="none">
<path d="M1605 2428 c-15 -57 -31 -114 -35 -128 -5 -14 -11 -45 -15 -69 -3
-24 -14 -65 -24 -90 -10 -25 -24 -66 -31 -91 -21 -74 -29 -103 -43 -155 -8
-27 -20 -70 -27 -95 -7 -25 -16 -56 -20 -70 -4 -14 -16 -54 -25 -90 -9 -36
-21 -74 -25 -85 -5 -11 -11 -31 -14 -45 -13 -64 -32 -129 -39 -136 -4 -4 -7
-22 -7 -40 0 -18 -3 -34 -8 -36 -4 -1 -18 -43 -30 -93 -13 -49 -28 -106 -33
-125 -6 -19 -16 -56 -22 -82 -7 -25 -15 -50 -20 -54 -4 -4 -7 -18 -7 -31 0
-24 1 -24 68 -19 223 18 548 14 860 -11 87 -6 86 -10 38 132 -18 55 -41 125
-50 155 -9 30 -20 64 -25 75 -5 11 -16 45 -25 75 -10 30 -21 64 -26 75 -4 11
-20 61 -35 110 -15 50 -31 99 -35 110 -5 11 -16 45 -25 75 -9 30 -20 64 -25
75 -4 11 -31 94 -60 185 -29 91 -56 174 -61 185 -5 11 -20 58 -35 105 -14 47
-41 129 -60 184 -19 54 -34 100 -34 102 0 2 -4 4 -9 4 -5 0 -21 -46 -36 -102z"/>
<path d="M1309 2042 l-76 -15 -44 -66 c-24 -36 -47 -68 -50 -71 -3 -3 -86
-120 -184 -260 -98 -140 -182 -256 -186 -258 -5 -2 -9 -9 -9 -15 0 -7 -11 -24
-25 -39 -14 -15 -25 -29 -25 -32 0 -3 -94 -139 -210 -303 -139 -198 -205 -299
-195 -301 8 -2 31 4 52 13 60 27 75 32 133 51 30 9 64 20 75 24 66 25 190 53
383 88 56 10 103 21 105 23 2 2 43 126 91 274 49 149 92 279 96 290 5 11 16
45 25 75 9 30 20 63 26 72 5 10 9 25 9 33 0 8 4 23 9 33 5 9 17 42 26 72 9 30
19 64 24 75 5 11 16 45 25 75 10 30 21 64 25 75 12 31 31 91 31 98 0 10 -44 6
-131 -11z"/>
<path d="M1310 819 c-87 -10 -264 -31 -320 -36 -25 -3 -49 -9 -54 -14 -6 -5
-24 -9 -42 -9 -35 0 -90 -12 -276 -61 -71 -19 -142 -41 -160 -50 -10 -5 -23
-9 -30 -9 -12 0 -120 -38 -183 -65 -16 -6 -57 -23 -90 -36 -33 -13 -71 -29
-85 -36 -25 -13 -25 -13 10 -13 19 1 55 5 80 10 124 27 296 46 531 61 349 22
749 -16 1059 -101 155 -42 177 -49 262 -79 89 -32 114 -37 120 -23 2 4 53 43
113 87 61 44 119 88 129 97 11 10 28 20 38 24 10 3 18 10 18 15 0 5 7 9 15 9
8 0 15 3 15 8 0 4 17 18 37 32 20 14 41 30 47 36 6 6 22 16 35 23 15 8 20 16
14 22 -11 11 -184 49 -225 49 -15 0 -37 4 -50 9 -21 9 -129 22 -393 51 -113
12 -516 11 -615 -1z"/>
</g>
</svg>
